<svg xmlns="http://www.w3.org/2000/svg" viewBox="-5 -5 34 34" width="96" height="96"><rect x="-5" y="-5" width="34" height="34" rx="8" fill="#0b1020e6"/><g fill="none" stroke="#f472b6" stroke-width="2" stroke-linecap="round" stroke-linejoin="round"><path d="M2 21c.6.5 1.2 1 2.5 1 2.5 0 2.5-2 5-2 1.3 0 1.9.5 2.5 1 .6.5 1.2 1 2.5 1 2.5 0 2.5-2 5-2 1.3 0 1.9.5 2.5 1"/><path d="M19.38 20A11.6 11.6 0 0 0 21 14l-9-4-9 4c0 2.9.94 5.34 2.81 7.76"/><path d="M19 13V7a2 2 0 0 0-2-2H7a2 2 0 0 0-2 2v6"/><path d="M12 10v4"/><path d="M12 2v3"/></g></svg>